# Blender v2.79 (sub 0) OBJ File: 'itembox.blend'
# www.blender.org
mtllib itembox.mtl
o Cube
v 1.000000 -0.764026 -0.764026
v 0.764026 -1.000000 -0.764026
v 0.764026 -0.764026 -1.000000
v 1.000000 -0.764026 0.764026
v 0.764026 -0.764026 1.000000
v 0.764026 -1.000000 0.764026
v -0.764026 -0.764026 1.000000
v -1.000000 -0.764026 0.764026
v -0.764026 -1.000000 0.764026
v -0.764026 -0.764026 -1.000000
v -0.764026 -1.000000 -0.764027
v -1.000000 -0.764026 -0.764027
v 0.764027 0.764026 -1.000000
v 0.764027 1.000000 -0.764026
v 1.000000 0.764026 -0.764026
v 0.764026 0.764026 1.000000
v 1.000000 0.764026 0.764027
v 0.764026 1.000000 0.764027
v -1.000000 0.764026 0.764026
v -0.764027 0.764026 1.000000
v -0.764027 1.000000 0.764026
v -1.000000 0.764026 -0.764026
v -0.764026 1.000000 -0.764026
v -0.764026 0.764026 -1.000000
vt 0.522995 0.535015
vt 0.719520 0.748025
vt 0.719520 0.535015
vt 0.742994 0.533367
vt 0.939519 0.746376
vt 0.939519 0.533367
vt 0.496053 0.299836
vt 0.299528 0.512845
vt 0.496053 0.512845
vt 0.304688 0.538207
vt 0.501212 0.751216
vt 0.501212 0.538207
vt 0.086581 0.537949
vt 0.283106 0.750958
vt 0.283106 0.537949
vt 0.982809 0.012651
vt 0.936277 0.063219
vt 0.982809 0.063219
vt 0.926203 0.061833
vt 0.926203 0.011265
vt 0.879671 0.061833
vt 0.982509 0.120700
vt 0.935976 0.120700
vt 0.982509 0.070132
vt 0.924991 0.064019
vt 0.924991 0.114587
vt 0.878458 0.114587
vt 0.982179 0.010109
vt 0.935647 0.060677
vt 0.935647 0.010109
vt 0.877626 0.009259
vt 0.924159 0.009259
vt 0.877626 0.059826
vt 0.876022 0.114281
vt 0.922555 0.063713
vt 0.876022 0.063713
vt 0.980894 0.067343
vt 0.934361 0.117910
vt 0.934361 0.067343
vt 0.870533 0.065390
vt 0.648243 0.115655
vt 0.870533 0.115655
vt 0.416988 0.174320
vt 0.211900 0.119755
vt 0.211900 0.174320
vt 0.421232 0.066199
vt 0.643522 0.116463
vt 0.643522 0.066199
vt 0.210060 0.174455
vt 0.004973 0.119890
vt 0.004973 0.174455
vt 0.647871 0.123589
vt 0.870160 0.173853
vt 0.870160 0.123589
vt 0.210060 0.060618
vt 0.004973 0.006053
vt 0.004973 0.060618
vt 0.648119 0.008809
vt 0.870409 0.059073
vt 0.870409 0.008809
vt 0.209252 0.117334
vt 0.004165 0.062769
vt 0.004165 0.117334
vt 0.643958 0.009617
vt 0.421668 0.059881
vt 0.643958 0.059881
vt 0.418916 0.061156
vt 0.213829 0.006591
vt 0.213829 0.061156
vt 0.419927 0.123857
vt 0.642217 0.174122
vt 0.642217 0.123857
vt 0.213020 0.118681
vt 0.418108 0.064116
vt 0.213020 0.064116
vt 0.301317 0.777169
vt 0.497842 0.990178
vt 0.497842 0.777169
vt 0.522995 0.748025
vt 0.742994 0.746376
vt 0.299528 0.299836
vt 0.304688 0.751216
vt 0.086581 0.750958
vt 0.648243 0.065390
vt 0.416988 0.119755
vt 0.421232 0.116463
vt 0.210060 0.119890
vt 0.647871 0.173853
vt 0.210060 0.006053
vt 0.648119 0.059073
vt 0.209252 0.062769
vt 0.421668 0.009617
vt 0.418916 0.006591
vt 0.419927 0.174122
vt 0.418108 0.118681
vt 0.301317 0.990178
vn 0.0000 0.0000 -1.0000
vn 0.0000 -1.0000 0.0000
vn -1.0000 -0.0000 -0.0000
vn 0.0000 1.0000 0.0000
vn -0.0000 -0.0000 1.0000
vn 0.5774 -0.5774 -0.5773
vn 0.5774 -0.5774 0.5774
vn -0.5774 -0.5774 0.5774
vn -0.5774 -0.5774 -0.5774
vn 0.5774 0.5774 -0.5774
vn 0.5773 0.5774 0.5774
vn -0.5774 0.5774 0.5774
vn -0.5773 0.5774 -0.5774
vn 0.7071 -0.7071 0.0000
vn 0.0000 -0.7071 -0.7071
vn 0.7071 0.0000 -0.7071
vn -0.0000 -0.7071 0.7071
vn 0.7071 -0.0000 0.7071
vn -0.7071 -0.7071 -0.0000
vn -0.7071 0.0000 0.7071
vn -0.7071 0.0000 -0.7071
vn 0.7071 0.7071 0.0000
vn 0.0000 0.7071 -0.7071
vn -0.0000 0.7071 0.7071
vn -0.7071 0.7071 -0.0000
vn 1.0000 -0.0000 0.0000
usemtl Material
s off
f 3/1/1 24/2/1 13/3/1
f 6/4/2 11/5/2 2/6/2
f 8/7/3 22/8/3 12/9/3
f 23/10/4 18/11/4 14/12/4
f 16/13/5 7/14/5 5/15/5
f 1/16/6 2/17/6 3/18/6
f 4/19/7 5/20/7 6/21/7
f 7/22/8 8/23/8 9/24/8
f 10/25/9 11/26/9 12/27/9
f 13/28/10 14/29/10 15/30/10
f 16/31/11 17/32/11 18/33/11
f 19/34/12 20/35/12 21/36/12
f 22/37/13 23/38/13 24/39/13
f 1/40/14 6/41/14 2/42/14
f 11/43/15 3/44/15 2/45/15
f 13/46/16 1/47/16 3/48/16
f 7/49/17 6/50/17 5/51/17
f 17/52/18 5/53/18 4/54/18
f 12/55/19 9/56/19 8/57/19
f 20/58/20 8/59/20 7/60/20
f 22/61/21 10/62/21 12/63/21
f 14/64/22 17/65/22 15/66/22
f 24/67/23 14/68/23 13/69/23
f 21/70/24 16/71/24 18/72/24
f 21/73/25 22/74/25 19/75/25
f 15/76/26 4/77/26 1/78/26
f 3/1/1 10/79/1 24/2/1
f 6/4/2 9/80/2 11/5/2
f 8/7/3 19/81/3 22/8/3
f 23/10/4 21/82/4 18/11/4
f 16/13/5 20/83/5 7/14/5
f 1/40/14 4/84/14 6/41/14
f 11/43/15 10/85/15 3/44/15
f 13/46/16 15/86/16 1/47/16
f 7/49/17 9/87/17 6/50/17
f 17/52/18 16/88/18 5/53/18
f 12/55/19 11/89/19 9/56/19
f 20/58/20 19/90/20 8/59/20
f 22/61/21 24/91/21 10/62/21
f 14/64/22 18/92/22 17/65/22
f 24/67/23 23/93/23 14/68/23
f 21/70/24 20/94/24 16/71/24
f 21/73/25 23/95/25 22/74/25
f 15/76/26 17/96/26 4/77/26
