# Blender v2.79 (sub 0) OBJ File: 'questionmarkdot.blend'
# www.blender.org
mtllib questionmarkdot.mtl
o Plane.001_Plane.002
v -0.200945 -0.153193 -0.100598
v -0.155262 -0.148847 -0.141143
v -0.138347 -0.191505 -0.100598
v 0.091188 -0.192049 -0.100598
v 0.119927 -0.147627 -0.141143
v 0.168038 -0.169640 -0.100598
v -0.176916 0.332914 -0.100598
v -0.186316 0.292296 -0.141143
v -0.227991 0.293452 -0.100598
v 0.255529 0.025109 -0.100598
v 0.224503 0.059842 -0.141143
v 0.249374 0.099218 -0.100598
v 0.082041 0.334885 -0.100598
v 0.141775 0.299477 -0.100598
v 0.098442 0.294463 -0.141143
v -0.283139 -0.028365 -0.100598
v -0.294906 0.044652 -0.100598
v -0.261548 0.012571 -0.141143
v 0.025682 -0.200177 -0.100598
v -0.054855 -0.200721 -0.100598
v -0.014831 -0.164348 -0.141143
v 0.206560 -0.119124 -0.100598
v 0.156912 -0.174933 -0.100598
v 0.160640 -0.128261 -0.141143
v -0.200945 -0.153193 0.096256
v -0.138347 -0.191505 0.096256
v -0.155262 -0.148847 0.136801
v 0.091188 -0.192049 0.096256
v 0.168038 -0.169640 0.096256
v 0.119927 -0.147627 0.136801
v -0.176916 0.332914 0.096256
v -0.227991 0.293452 0.096256
v -0.186316 0.292296 0.136801
v 0.255529 0.025109 0.096256
v 0.249374 0.099218 0.096256
v 0.224503 0.059842 0.136801
v 0.082041 0.334885 0.096256
v 0.098442 0.294463 0.136801
v 0.141775 0.299477 0.096256
v -0.283139 -0.028365 0.096256
v -0.261548 0.012571 0.136801
v -0.294906 0.044652 0.096256
v 0.025682 -0.200177 0.096256
v -0.014831 -0.164348 0.136801
v -0.054855 -0.200721 0.096256
v 0.206560 -0.119124 0.096256
v 0.160640 -0.128261 0.136801
v 0.156912 -0.174933 0.096256
vt 0.276031 0.734035
vt 0.098969 0.663624
vt 0.276031 0.663624
vt 0.120026 0.977807
vt 0.129905 0.803189
vt 0.129905 0.977807
vt 0.276031 0.862068
vt 0.098969 0.803807
vt 0.276031 0.803807
vt 0.734821 0.495909
vt 0.574005 0.278260
vt 0.985901 0.174688
vt 0.256500 0.972271
vt 0.079438 0.787342
vt 0.256500 0.787342
vt 0.564453 0.752805
vt 0.725269 0.535156
vt 0.976349 0.856377
vt 0.264313 0.902332
vt 0.087250 0.672751
vt 0.264313 0.672751
vt 0.256500 0.721378
vt 0.079438 0.597471
vt 0.256500 0.597471
vt 0.233062 0.776616
vt 0.056000 0.568175
vt 0.233062 0.568175
vt 0.276031 0.617003
vt 0.312500 0.657373
vt 0.312500 0.895655
vt 0.276031 0.932947
vt 0.300781 0.909718
vt 0.264313 0.946700
vt 0.292969 0.754360
vt 0.264313 0.618956
vt 0.300781 0.657264
vt 0.233062 0.842221
vt 0.269531 0.809418
vt 0.312500 0.775802
vt 0.091369 0.901989
vt 0.146035 0.901989
vt 0.133467 0.937955
vt 0.098969 0.617003
vt 0.062500 0.657373
vt 0.098969 0.862068
vt 0.098969 0.932947
vt 0.062500 0.895655
vt 0.087250 0.902332
vt 0.087250 0.946700
vt 0.050781 0.909718
vt 0.079438 0.721378
vt 0.042969 0.754360
vt 0.050781 0.657264
vt 0.087250 0.618956
vt 0.056000 0.842221
vt 0.019531 0.809418
vt 0.056000 0.776616
vt 0.062500 0.775803
vt 0.098969 0.734035
vt 0.091369 0.727372
vt 0.133467 0.691406
vt 0.146035 0.727372
vt 0.145875 0.682947
vt 0.182344 0.834589
vt 0.145875 0.854384
vt 0.186891 0.865981
vt 0.150422 0.777277
vt 0.186891 0.745528
vt 0.083557 0.803189
vt 0.120026 0.958629
vt 0.083557 0.979399
vt 0.247629 0.809240
vt 0.211160 0.570916
vt 0.247629 0.556641
vt 0.148469 0.932877
vt 0.112000 0.716945
vt 0.148469 0.696619
vt 0.174691 0.556641
vt 0.138223 0.793791
vt 0.138223 0.565252
vt 0.077485 0.745528
vt 0.041016 0.839104
vt 0.041016 0.764593
vt 0.259829 0.745528
vt 0.223360 0.764749
vt 0.223360 0.775679
vt 0.174692 0.833382
vt 0.138223 0.985024
vt 0.138223 0.813587
vt 0.113953 0.834232
vt 0.150422 0.745528
vt 0.150422 0.865981
vt 0.105500 0.848153
vt 0.141969 0.692713
vt 0.141969 0.868923
vt 0.291016 0.972053
vt 0.327484 0.733728
vt 0.327484 0.986328
vt 0.192078 0.656398
vt 0.155610 0.872330
vt 0.155610 0.636072
vt 0.211160 0.793791
vt 0.174692 0.556641
vt 0.211160 0.565252
vt 0.077485 0.777277
vt 0.113953 0.870853
vt 0.077485 0.851788
vt 0.186891 0.755369
vt 0.223360 0.745528
vt 0.223360 0.785520
vt 0.233063 0.963139
vt 0.120026 0.803189
vt 0.588908 0.402720
vt 0.588122 0.158615
vt 0.774011 0.064453
vt 0.605262 0.122371
vt 0.985901 0.427288
vt 0.079438 0.972271
vt 0.579356 0.628345
vt 0.976349 0.603777
vt 0.764459 0.966612
vt 0.595710 0.908694
vt 0.578570 0.872451
vt 0.182344 0.702012
vt 0.150422 0.835830
vt 0.120026 0.823515
vt 0.211160 0.800629
vt 0.112000 0.918602
vt 0.174692 0.813587
vt 0.077485 0.870853
vt 0.259829 0.785520
vt 0.174692 0.965959
vt 0.113953 0.775679
vt 0.105500 0.713039
vt 0.291016 0.742340
vt 0.192078 0.858055
vt 0.174692 0.813587
vt 0.113953 0.745528
vt 0.186891 0.766298
vt 0.056000 0.963139
vn -0.1097 -0.9940 0.0000
vn -0.4296 0.9030 0.0000
vn 0.1231 -0.9924 -0.0000
vn 0.0000 -0.0000 1.0000
vn 0.8809 0.4733 0.0000
vn 0.0000 0.0000 -1.0000
vn -0.0076 1.0000 0.0000
vn 0.9469 -0.3215 0.0000
vn -0.9657 0.2597 0.0000
vn -0.4317 -0.7054 -0.5621
vn 0.2129 -0.7303 -0.6491
vn -0.5124 0.6632 -0.5456
vn 0.8196 0.0681 -0.5689
vn 0.4273 0.7208 -0.5458
vn -0.8140 -0.1312 -0.5659
vn 0.0050 -0.7468 -0.6650
vn 0.6131 -0.5454 -0.5715
vn -0.4317 -0.7054 0.5621
vn 0.2129 -0.7303 0.6491
vn -0.5124 0.6632 0.5456
vn 0.8196 0.0681 0.5689
vn 0.4273 0.7208 0.5458
vn -0.8140 -0.1312 0.5659
vn 0.0050 -0.7468 0.6650
vn 0.6131 -0.5454 0.5715
vn -0.5906 -0.3889 -0.7071
vn 0.0871 -0.7017 -0.7071
vn 0.6696 -0.2273 -0.7071
vn -0.0054 0.7071 -0.7071
vn 0.6229 0.3347 -0.7071
vn -0.6828 0.1837 -0.7071
vn -0.0776 -0.7028 -0.7071
vn -0.3037 0.6385 0.7071
vn -0.5906 -0.3889 0.7071
vn 0.0871 -0.7017 0.7071
vn 0.6696 -0.2273 0.7071
vn -0.0054 0.7071 0.7071
vn 0.6229 0.3347 0.7071
vn -0.6828 0.1837 0.7071
vn -0.0776 -0.7028 0.7071
vn 0.3037 -0.6385 0.7071
vn 0.2799 -0.9600 0.0000
vn 0.0068 -1.0000 -0.0000
vn -0.5220 -0.8529 0.0000
vn 0.5099 0.8602 0.0000
vn 0.9966 0.0828 0.0000
vn 0.7471 -0.6647 0.0000
vn -0.9873 -0.1591 -0.0000
vn -0.6114 0.7913 0.0000
vn -0.8352 -0.5499 -0.0000
vn 0.3037 -0.6385 -0.7071
vn -0.3037 0.6385 -0.7071
usemtl None
s off
f 20/1/1 26/2/1 3/3/1
f 23/4/2 29/5/2 6/6/2
f 4/7/3 43/8/3 19/9/3
f 41/10/4 44/11/4 38/12/4
f 14/13/5 35/14/5 12/15/5
f 21/16/6 18/17/6 15/18/6
f 7/19/7 37/20/7 13/21/7
f 10/22/8 46/23/8 22/24/8
f 17/25/9 32/26/9 9/27/9
f 1/28/10 2/29/10 3/3/10
f 4/7/11 5/30/11 6/31/11
f 7/19/12 8/32/12 9/33/12
f 10/22/13 11/34/13 12/15/13
f 13/21/14 14/35/14 15/36/14
f 16/37/15 17/25/15 18/38/15
f 19/9/16 20/1/16 21/39/16
f 22/40/17 23/41/17 24/42/17
f 25/43/18 26/2/18 27/44/18
f 28/45/19 29/46/19 30/47/19
f 31/48/20 32/49/20 33/50/20
f 34/51/21 35/14/21 36/52/21
f 37/20/22 38/53/22 39/54/22
f 40/55/23 41/56/23 42/57/23
f 43/8/24 44/58/24 45/59/24
f 46/60/25 47/61/25 48/62/25
f 2/63/26 16/64/26 18/65/26
f 5/66/27 19/67/27 21/68/27
f 11/69/28 22/70/28 24/71/28
f 8/72/29 13/73/29 15/74/29
f 15/75/30 12/76/30 11/77/30
f 8/78/31 17/79/31 9/80/31
f 2/81/32 20/82/32 3/83/32
f 5/84/33 23/85/33 6/86/33
f 40/87/34 27/88/34 41/89/34
f 43/90/35 30/91/35 44/92/35
f 46/93/36 36/94/36 47/95/36
f 37/96/37 33/97/37 38/98/37
f 35/99/38 38/100/38 36/101/38
f 42/102/39 33/103/39 32/104/39
f 45/105/40 27/106/40 26/107/40
f 29/108/41 47/109/41 30/110/41
f 29/46/42 4/7/42 6/31/42
f 45/59/43 19/9/43 43/8/43
f 1/28/44 26/2/44 25/43/44
f 37/20/45 14/35/45 13/21/45
f 34/51/46 12/15/46 35/14/46
f 23/41/47 46/60/47 48/62/47
f 17/25/48 40/55/48 42/57/48
f 7/19/49 32/49/49 31/48/49
f 1/111/50 40/55/50 16/37/50
f 20/1/1 45/59/1 26/2/1
f 23/4/2 48/112/2 29/5/2
f 4/7/3 28/45/3 43/8/3
f 41/10/4 27/113/4 44/11/4
f 44/11/4 30/114/4 36/115/4
f 30/114/4 47/116/4 36/115/4
f 36/115/4 38/12/4 44/11/4
f 38/12/4 33/117/4 41/10/4
f 14/13/5 39/118/5 35/14/5
f 21/16/6 2/119/6 18/17/6
f 18/17/6 8/120/6 15/18/6
f 15/18/6 11/121/6 21/16/6
f 11/121/6 24/122/6 5/123/6
f 21/16/6 11/121/6 5/123/6
f 7/19/7 31/48/7 37/20/7
f 10/22/8 34/51/8 46/23/8
f 17/25/9 42/57/9 32/26/9
f 2/63/26 1/124/26 16/64/26
f 5/66/27 4/125/27 19/67/27
f 11/69/28 10/126/28 22/70/28
f 8/72/29 7/127/29 13/73/29
f 15/75/30 14/128/30 12/76/30
f 8/78/31 18/129/31 17/79/31
f 2/81/32 21/130/32 20/82/32
f 5/84/51 24/131/51 23/85/51
f 40/87/34 25/132/34 27/88/34
f 43/90/35 28/133/35 30/91/35
f 46/93/36 34/134/36 36/94/36
f 37/96/37 31/135/37 33/97/37
f 35/99/38 39/136/38 38/100/38
f 42/102/39 41/137/39 33/103/39
f 45/105/40 44/138/40 27/106/40
f 29/108/52 48/139/52 47/109/52
f 29/46/42 28/45/42 4/7/42
f 45/59/43 20/1/43 19/9/43
f 1/28/44 3/3/44 26/2/44
f 37/20/45 39/54/45 14/35/45
f 34/51/46 10/22/46 12/15/46
f 23/41/47 22/40/47 46/60/47
f 17/25/48 16/37/48 40/55/48
f 7/19/49 9/33/49 32/49/49
f 1/111/50 25/140/50 40/55/50
