# Blender v2.79 (sub 0) OBJ File: 'tree.blend'
# www.blender.org
mtllib tree.mtl
o Plane
v -0.756302 3.834026 0.629647
v -4.515984 8.143839 0.242071
v 0.615862 0.352737 0.822585
v -0.506193 3.810711 0.638262
v -0.088666 3.670007 0.650669
v 0.339981 3.650396 0.655041
v 0.867722 3.700577 0.676268
v 0.454113 0.308071 0.826690
v 0.015029 0.230138 0.835570
v -0.405372 0.342302 0.834305
v -0.629146 0.293650 0.839297
v -0.868451 1.125852 0.796325
v -1.166396 2.055257 0.747227
v 0.969573 1.840462 0.739478
v 0.703272 0.521661 0.811874
v -0.811733 1.009137 0.801808
v -3.318842 9.233521 0.216037
v 0.648077 9.922426 0.338110
v 3.695441 8.337816 0.532366
v 4.456721 7.075670 0.617999
v -3.181808 3.765444 0.564242
v -4.336209 5.285550 0.436278
v -4.577504 5.691606 0.400464
v -4.482844 6.107083 0.374902
v -4.517130 6.962866 0.314905
v -4.471849 7.817506 0.263758
v 4.455003 6.755036 0.632148
v 4.595795 6.305685 0.656578
v 4.660034 5.866443 0.678409
v 4.573650 5.447754 0.694968
v 4.683820 4.160543 0.763071
v 3.998444 2.867264 0.812556
v 1.784576 9.657974 0.398055
v -1.066586 9.842834 0.271404
v -0.718217 3.705094 -1.491472
v -4.552323 8.124128 -1.891035
v 0.620434 0.141900 -1.294839
v -0.476449 3.683464 -1.483026
v -0.068792 3.541948 -1.470771
v 0.373674 3.521754 -1.466715
v 0.951668 3.569263 -1.445813
v 0.454397 0.096052 -1.290625
v 0.003672 0.016052 -1.281509
v -0.427874 0.131190 -1.282808
v -0.657579 0.081247 -1.277683
v -0.903229 0.935511 -1.321795
v -1.204698 1.888826 -1.372070
v 0.987943 1.668823 -1.380563
v 0.710160 0.315304 -1.305834
v -0.595187 3.213657 -1.443816
v -0.640603 2.683682 -1.412586
v -0.845007 0.815701 -1.316167
v -0.077989 3.157246 -1.440671
v -0.118127 2.646487 -1.413717
v -0.219851 2.244364 -1.400499
v -3.315210 9.251453 -1.915483
v 0.759590 9.962902 -1.789203
v 3.884243 8.330746 -1.591106
v 4.659024 7.033841 -1.504293
v -3.188406 3.629058 -1.563861
v -4.375097 5.192882 -1.693092
v -4.621070 5.609477 -1.729278
v -4.522297 6.035759 -1.755069
v -4.554471 6.914151 -1.815449
v -4.506821 7.790789 -1.868398
v 4.654960 6.708477 -1.489204
v 4.796991 6.247064 -1.464628
v 4.860673 5.796223 -1.442780
v 4.769886 5.366419 -1.426481
v 4.779526 4.923601 -1.406320
v 4.877345 4.037121 -1.357722
v 4.172862 2.712196 -1.305515
v -0.537079 3.440921 -1.458033
v -0.003537 3.379461 -1.452688
v 0.119809 3.136126 -1.440019
v 0.024303 2.635954 -1.414016
v 1.933106 9.686609 -1.729764
v 0.118891 3.375244 -1.452326
v -1.000249 9.879374 -1.858247
v -0.411205 3.193207 -1.442236
v -0.503574 2.681375 -1.413117
v -0.493832 2.112915 -1.391364
v -0.425491 3.450242 -1.457685
v -0.113181 2.686586 -0.665388
v -0.500197 2.714483 -0.664420
v -0.471632 2.310173 -0.641939
v -0.538725 3.438769 -1.495356
v -0.595236 3.211519 -1.481409
v -0.640831 2.681575 -1.450189
v -0.003944 3.377491 -1.490415
v -0.078095 3.155141 -1.478295
v -0.118320 2.644354 -1.451297
v 0.024105 2.633815 -1.451589
v -0.503648 2.679273 -1.450750
v -0.425749 3.448109 -1.495254
v 0.118582 3.373269 -1.490061
v 0.119721 3.134012 -1.477635
v -0.410939 3.191050 -1.479858
v -0.119589 2.635582 -1.620799
v -0.221389 2.233110 -1.610872
v -0.505148 2.670401 -1.620106
v -0.495466 2.101799 -1.601874
vt 0.904579 0.838044
vt 0.767704 0.717266
vt 0.904991 0.717149
vt 0.846923 0.341750
vt 0.984685 0.391566
vt 0.847341 0.398727
vt 0.536429 0.905226
vt 0.540066 0.894438
vt 0.540066 0.905211
vt 0.983974 0.279978
vt 0.846314 0.256181
vt 0.983685 0.252702
vt 0.543704 0.894239
vt 0.540067 0.906018
vt 0.540067 0.894243
vt 0.871562 0.900095
vt 0.834902 0.763298
vt 0.869197 0.763461
vt 0.794965 0.747384
vt 0.823299 0.705791
vt 0.850773 0.699923
vt 0.984085 0.369815
vt 0.846630 0.369286
vt 0.846729 0.314018
vt 0.217709 0.087051
vt 0.327808 0.259000
vt 0.154693 0.100875
vt 0.983987 0.262157
vt 0.846715 0.286389
vt 0.846529 0.258774
vt 0.869130 0.297126
vt 0.970288 0.149966
vt 0.970288 0.299264
vt 0.417293 0.820000
vt 0.426155 0.819528
vt 0.426155 0.853719
vt 0.543705 0.859496
vt 0.540067 0.881005
vt 0.540067 0.859476
vt 0.846612 0.284180
vt 0.984277 0.336060
vt 0.540067 0.786686
vt 0.536429 0.735688
vt 0.540067 0.735695
vt 0.795277 0.900278
vt 0.809745 0.763564
vt 0.809734 0.900338
vt 0.824212 0.742992
vt 0.840310 0.879621
vt 0.823785 0.879626
vt 0.904840 0.924406
vt 0.767280 0.841366
vt 0.980112 0.369771
vt 0.878214 0.316152
vt 0.979760 0.315139
vt 0.984056 0.235235
vt 0.846800 0.203493
vt 0.984251 0.208303
vt 0.880307 0.874511
vt 0.868803 0.838359
vt 0.913913 0.821577
vt 0.847927 0.459675
vt 0.979999 0.259781
vt 0.874023 0.123110
vt 0.982402 0.123110
vt 0.766534 0.806724
vt 0.904140 0.749923
vt 0.903806 0.809820
vt 0.904991 0.935778
vt 0.767549 0.930017
vt 0.891125 0.589399
vt 0.866194 0.541251
vt 0.891125 0.541209
vt 0.766876 0.745240
vt 0.904189 0.742374
vt 0.896288 0.574340
vt 0.875451 0.547960
vt 0.892327 0.537966
vt 0.869130 0.299756
vt 0.970295 0.414942
vt 0.869130 0.418500
vt 0.807845 0.899914
vt 0.836357 0.899928
vt 0.543705 0.785645
vt 0.540067 0.835026
vt 0.540067 0.785638
vt 0.423400 0.819207
vt 0.415492 0.819528
vt 0.414065 0.804070
vt 0.847417 0.128816
vt 0.983840 0.226318
vt 0.846474 0.229099
vt 0.536429 0.835782
vt 0.540067 0.858808
vt 0.536429 0.858817
vt 0.873516 0.612890
vt 0.886902 0.587981
vt 0.886902 0.612897
vt 0.543704 0.835033
vt 0.540067 0.859476
vt 0.540067 0.835049
vt 0.836874 0.900187
vt 0.536429 0.894434
vt 0.540067 0.880743
vt 0.540067 0.894438
vt 0.981694 0.463857
vt 0.878576 0.372232
vt 0.543705 0.881025
vt 0.540067 0.894239
vt 0.540067 0.881024
vt 0.845967 0.907060
vt 0.846429 0.873950
vt 0.867715 0.908113
vt 0.866722 0.763506
vt 0.865240 0.900283
vt 0.766927 0.737491
vt 0.904409 0.696188
vt 0.873516 0.614402
vt 0.860132 0.588192
vt 0.873516 0.587975
vt 0.878243 0.232664
vt 0.979788 0.233807
vt 0.536429 0.880726
vt 0.540067 0.858829
vt 0.540067 0.880738
vt 0.540066 0.835774
vt 0.536429 0.786686
vt 0.540066 0.786692
vt 0.980432 0.128779
vt 0.880199 0.070470
vt 0.981694 0.075802
vt 0.883679 0.556703
vt 0.870068 0.574445
vt 0.870068 0.556834
vt 0.543704 0.735692
vt 0.540067 0.785633
vt 0.540067 0.735688
vt 0.807126 0.763284
vt 0.779584 0.900095
vt 0.779595 0.763461
vt 0.874052 0.577488
vt 0.887438 0.541088
vt 0.887438 0.577677
vt 0.896399 0.539596
vt 0.870571 0.587975
vt 0.859907 0.539283
vt 0.877450 0.763564
vt 0.669563 0.343687
vt 0.564205 0.508232
vt 0.503903 0.495004
vt 0.767152 0.923141
vt 0.904409 0.923230
vt 0.984214 0.188314
vt 0.984758 0.412607
vt 0.846762 0.182974
vt 0.985349 0.114993
vt 0.536429 0.894453
vt 0.543704 0.906014
vt 0.790297 0.928281
vt 0.769066 0.813421
vt 0.806396 0.928150
vt 0.790935 0.754709
vt 0.907545 0.806717
vt 0.833807 0.920989
vt 0.809019 0.701945
vt 0.896014 0.928281
vt 0.861598 0.921588
vt 0.889139 0.709733
vt 0.894240 0.720880
vt 0.878848 0.706342
vt 0.984168 0.289059
vt 0.349441 0.461502
vt 0.279897 0.528257
vt 0.331637 0.340705
vt 0.260738 0.542746
vt 0.239098 0.540540
vt 0.195796 0.547185
vt 0.152503 0.549658
vt 0.074800 0.499730
vt 0.136419 0.553673
vt 0.032393 0.390444
vt 0.280726 0.073227
vt 0.349441 0.098754
vt 0.019731 0.305223
vt 0.027187 0.247509
vt 0.081881 0.146886
vt 0.139095 0.102584
vt 0.175708 0.091260
vt 0.196716 0.085401
vt 0.238713 0.083695
vt 0.869130 0.143870
vt 0.424039 0.868566
vt 0.414065 0.853312
vt 0.416801 0.869742
vt 0.543705 0.881024
vt 0.536429 0.786679
vt 0.794904 0.763502
vt 0.840310 0.742987
vt 0.846600 0.231138
vt 0.871439 0.874852
vt 0.851575 0.847738
vt 0.837211 0.873772
vt 0.833102 0.906437
vt 0.834313 0.921914
vt 0.818928 0.932611
vt 0.783599 0.939482
vt 0.771763 0.814695
vt 0.785421 0.726583
vt 0.887328 0.753789
vt 0.790657 0.715140
vt 0.801221 0.711659
vt 0.830040 0.705071
vt 0.858243 0.711094
vt 0.872901 0.707146
vt 0.891465 0.761309
vt 0.892118 0.939482
vt 0.879797 0.908698
vt 0.877460 0.923512
vt 0.985349 0.457870
vt 0.874419 0.259781
vt 0.767704 0.941691
vt 0.866143 0.589432
vt 0.871262 0.574340
vt 0.970295 0.299264
vt 0.543705 0.835033
vt 0.417718 0.771352
vt 0.426937 0.804515
vt 0.426937 0.771402
vt 0.984758 0.128625
vt 0.540067 0.835774
vt 0.543704 0.859460
vt 0.837604 0.763408
vt 0.536429 0.880738
vt 0.880199 0.468813
vt 0.543705 0.894239
vt 0.870206 0.924581
vt 0.875593 0.939347
vt 0.847455 0.931996
vt 0.842225 0.921702
vt 0.767153 0.690080
vt 0.859907 0.614622
vt 0.536429 0.858817
vt 0.536429 0.835768
vt 0.878904 0.124852
vt 0.883679 0.574313
vt 0.543704 0.785638
vt 0.873827 0.540895
vt 0.896399 0.587781
vt 0.875691 0.900338
vt 0.544116 0.509812
vt 0.524013 0.504205
vt 0.488976 0.493369
vt 0.434226 0.450974
vt 0.381887 0.354684
vt 0.374752 0.299456
vt 0.386869 0.217904
vt 0.673227 0.265501
vt 0.427450 0.113325
vt 0.486416 0.061704
vt 0.501807 0.065546
vt 0.543236 0.067913
vt 0.584673 0.074272
vt 0.605381 0.072161
vt 0.623715 0.086025
vt 0.690265 0.149905
vt 0.690265 0.497034
vt 0.624508 0.521461
vt 0.847417 0.420326
vt 0.847927 0.107709
vn 0.7279 -0.0218 0.6853
vn 0.2043 -0.3328 -0.9206
vn 0.1354 -0.2365 0.9621
vn -0.7112 -0.0368 -0.7020
vn -0.6915 0.0195 0.7221
vn -0.6755 -0.0766 -0.7334
vn 0.5351 0.5834 -0.6109
vn -0.2974 0.3264 -0.8972
vn 0.2799 0.2301 -0.9320
vn -0.6737 0.1128 0.7304
vn -0.7606 -0.1562 -0.6301
vn -0.7701 -0.0811 0.6327
vn -0.2881 0.3319 -0.8982
vn 0.5828 0.5368 -0.6099
vn -0.4618 0.6285 -0.6258
vn -0.0320 0.7300 0.6826
vn -0.6270 -0.1940 0.7544
vn -0.0053 -0.5840 0.8117
vn -0.0241 -0.6958 0.7178
vn 0.7081 -0.1111 0.6973
vn 0.7857 -0.1778 -0.5925
vn 0.7349 0.0157 -0.6779
vn 0.7181 -0.0966 -0.6891
vn 0.7072 0.0652 -0.7040
vn 0.6997 0.0101 0.7143
vn 0.7818 -0.0520 -0.6213
vn 0.2883 -0.7016 0.6516
vn 0.5126 -0.6580 -0.5516
vn -0.6112 -0.5804 -0.5381
vn -0.7146 0.0777 -0.6952
vn -0.6651 0.0956 -0.7406
vn -0.6693 0.0136 -0.7429
vn -0.7225 0.0476 0.6897
vn -0.6581 0.0571 -0.7507
vn -0.4230 -0.6465 0.6348
vn -0.0237 -0.7020 -0.7118
vn -0.3050 -0.1673 0.9375
vn 0.1663 0.6590 -0.7335
vn -0.2426 -0.2943 -0.9244
vn 0.6935 -0.2017 0.6916
vn 0.7267 -0.1002 -0.6795
vn 0.2658 0.6932 0.6699
vn 0.0963 0.7208 -0.6864
vn 0.0378 0.7443 0.6667
vn 0.6621 0.1882 0.7254
vn 0.6136 0.1331 0.7783
vn -0.3016 -0.3214 -0.8976
vn 0.0729 -0.3110 -0.9476
vn -0.7689 -0.0545 -0.6370
vn 0.3547 -0.7743 -0.5240
vn -0.6578 -0.2263 0.7183
vn -0.7514 0.0142 0.6596
vn 0.4921 -0.5549 0.6707
vn 0.6938 -0.2864 -0.6607
vn -0.0772 -0.9959 0.0472
vn 0.3912 -0.5032 -0.7705
vn -0.0527 -0.5217 -0.8515
vn -0.6857 -0.3068 -0.6601
vn -0.5642 0.5763 -0.5911
vn 0.5990 -0.5188 -0.6099
vn -0.4399 -0.7304 -0.5225
vn -0.3504 -0.6686 0.6558
vn -0.3293 -0.7472 -0.5772
vn 0.1274 0.5921 -0.7957
vn 0.0084 0.6304 -0.7762
vn -0.7196 0.1093 -0.6857
vn 0.7232 -0.1028 -0.6829
vn -0.6078 -0.3489 0.7132
vn -0.5870 -0.4507 -0.6725
vn 0.6868 -0.1065 -0.7190
vn 0.6694 0.4514 -0.5900
vn 0.7336 -0.0850 -0.6742
vn -0.6226 -0.5626 -0.5439
vn 0.2806 -0.3948 -0.8749
vn 0.5057 0.5297 0.6809
vn 0.3373 0.6677 -0.6637
vn 0.6792 -0.0830 -0.7292
vn 0.1555 -0.7522 -0.6403
vn 0.1626 -0.6426 0.7487
vn -0.6552 -0.2740 -0.7040
vn 0.4476 -0.4024 -0.7985
vn -0.0883 0.7069 -0.7018
vn -0.1364 0.7351 0.6641
vn -0.5291 0.5763 -0.6229
vn 0.4908 -0.6753 -0.5506
vn -0.3747 0.6778 0.6326
vn -0.7341 0.2436 -0.6338
vn -0.7457 0.2933 0.5983
vn 0.1233 0.7015 0.7019
vn 0.1406 0.7557 0.6395
vn 0.9987 0.0485 -0.0180
vn 0.4902 -0.6507 -0.5799
vn 0.6282 -0.0035 0.7781
vn 0.6866 0.2256 0.6912
vn 0.7736 0.1762 -0.6087
vn 0.3064 0.2296 -0.9238
vn -0.3489 0.6422 -0.6825
vn 0.5864 0.4946 -0.6415
vn 0.7480 0.1339 -0.6500
vn -0.4331 -0.7360 -0.5202
vn -0.0385 -0.7982 -0.6011
vn 0.7099 -0.7037 0.0279
usemtl Material.001
s 1
f 14/1/1 41/2/2 7/3/3
f 64/4/4 26/5/5 65/6/6
f 95/7/7 73/8/8 83/9/9
f 24/10/10 62/11/11 23/12/12
f 74/13/13 96/14/14 90/15/15
f 41/16/2 6/17/16 7/18/3
f 16/19/17 10/20/18 9/21/19
f 31/22/20 71/23/21 70/24/22
f 69/25/23 41/26/2 66/27/24
f 29/28/25 69/29/23 68/30/26
f 41/31/2 32/32/27 7/33/3
f 94/34/28 89/35/29 88/36/30
f 90/37/15 53/38/31 74/39/13
f 63/40/32 25/41/33 64/4/4
f 89/42/29 50/43/34 88/44/30
f 11/45/35 44/46/36 10/47/18
f 1/48/37 38/49/38 35/50/39
f 15/51/40 48/52/41 14/1/1
f 33/53/42 57/54/43 18/55/44
f 28/56/45 66/57/24 27/58/46
f 51/59/47 82/60/48 47/61/49
f 31/22/20 72/62/50 71/23/21
f 7/63/3 35/64/39 41/65/2
f 47/66/49 12/67/51 13/68/52
f 3/69/53 49/70/54 15/51/40
f 84/71/55 81/72/56 54/73/57
f 46/74/58 16/75/17 12/67/51
f 101/76/59 100/77/60 102/78/61
f 35/79/39 21/80/62 60/81/63
f 39/82/64 6/17/16 40/83/65
f 91/84/66 54/85/57 53/86/31
f 90/87/15 96/88/14 97/89/67
f 68/30/26 28/56/45 29/28/25
f 60/90/63 22/91/68 61/92/69
f 96/93/14 75/94/70 97/95/67
f 81/96/56 99/97/71 101/98/59
f 83/99/9 98/100/72 95/101/7
f 44/46/36 9/102/19 10/47/18
f 92/103/73 76/104/74 54/105/57
f 19/106/75 77/107/76 33/53/42
f 81/108/56 89/109/29 94/110/28
f 53/111/31 54/112/57 80/113/77
f 9/102/19 42/114/78 8/115/79
f 52/116/80 11/117/35 16/75/17
f 55/118/81 99/119/71 54/120/57
f 18/55/44 79/121/82 34/122/83
f 61/92/69 23/12/12 62/11/11
f 87/123/84 50/124/34 73/125/8
f 97/126/67 76/127/74 93/128/85
f 17/129/86 36/130/87 2/131/88
f 55/132/81 102/133/61 100/134/60
f 80/135/77 94/136/28 98/137/72
f 5/138/89 38/139/38 4/140/90
f 101/141/59 82/142/48 81/143/56
f 81/144/56 86/145/91 82/146/48
f 37/147/92 8/115/79 42/114/78
f 7/148/3 30/149/93 27/150/46
f 79/121/82 17/129/86 34/122/83
f 35/151/39 13/68/52 1/152/37
f 66/57/24 20/153/94 27/58/46
f 2/154/88 65/6/6 26/5/5
f 59/155/95 19/156/75 20/153/94
f 14/1/1 48/52/41 41/2/2
f 64/4/4 25/41/33 26/5/5
f 95/7/7 87/157/84 73/8/8
f 24/10/10 63/40/32 62/11/11
f 74/13/13 78/158/96 96/14/14
f 41/16/2 40/83/65 6/17/16
f 1/159/37 13/160/52 4/161/90
f 13/160/52 12/162/51 14/163/1
f 5/164/89 13/160/52 14/163/1
f 16/19/17 11/165/35 10/20/18
f 13/160/52 5/164/89 4/161/90
f 12/162/51 16/19/17 14/163/1
f 14/163/1 7/166/3 6/167/16
f 14/163/1 6/167/16 5/164/89
f 3/168/53 15/169/40 8/170/79
f 15/169/40 14/163/1 16/19/17
f 9/21/19 15/169/40 16/19/17
f 9/21/19 8/170/79 15/169/40
f 69/29/23 30/171/93 70/24/22
f 30/171/93 31/22/20 70/24/22
f 60/172/63 61/173/69 35/174/39
f 61/173/69 62/175/11 63/176/32
f 63/176/32 64/177/4 35/174/39
f 64/177/4 65/178/6 56/179/97
f 35/174/39 64/177/4 56/179/97
f 61/173/69 63/176/32 35/174/39
f 65/178/6 36/180/87 56/179/97
f 35/174/39 56/179/97 79/181/82
f 71/182/21 72/183/50 41/26/2
f 41/26/2 35/174/39 57/184/43
f 79/181/82 57/184/43 35/174/39
f 57/184/43 77/185/76 41/26/2
f 77/185/76 58/186/98 41/26/2
f 58/186/98 59/187/95 66/27/24
f 66/27/24 67/188/99 69/25/23
f 67/188/99 68/189/26 69/25/23
f 58/186/98 66/27/24 41/26/2
f 71/182/21 41/26/2 70/190/22
f 70/190/22 41/26/2 69/25/23
f 29/28/25 30/171/93 69/29/23
f 41/31/2 72/191/50 32/32/27
f 88/36/30 87/192/84 98/193/72
f 87/192/84 95/194/7 98/193/72
f 98/193/72 94/34/28 88/36/30
f 90/37/15 91/195/66 53/38/31
f 63/40/32 24/10/10 25/41/33
f 89/42/29 51/196/47 50/43/34
f 11/45/35 45/197/100 44/46/36
f 1/48/37 4/198/90 38/49/38
f 15/51/40 49/70/54 48/52/41
f 33/53/42 77/107/76 57/54/43
f 28/56/45 67/199/99 66/57/24
f 51/59/47 81/200/56 82/60/48
f 55/201/81 54/112/57 76/202/74
f 75/203/70 78/204/96 40/205/65
f 40/205/65 41/206/2 75/203/70
f 41/206/2 48/207/41 76/202/74
f 48/207/41 49/208/54 52/209/80
f 49/208/54 37/210/92 42/211/78
f 48/207/41 52/209/80 82/60/48
f 42/211/78 43/212/101 49/208/54
f 49/208/54 43/212/101 52/209/80
f 44/213/36 45/214/100 52/209/80
f 43/212/101 44/213/36 52/209/80
f 41/206/2 76/202/74 75/203/70
f 76/202/74 48/207/41 55/201/81
f 55/201/81 48/207/41 82/60/48
f 52/209/80 46/215/58 82/60/48
f 46/215/58 47/61/49 82/60/48
f 47/61/49 35/216/39 50/217/34
f 35/216/39 73/218/8 50/217/34
f 47/61/49 50/217/34 51/59/47
f 31/22/20 32/219/27 72/62/50
f 7/63/3 1/220/37 35/64/39
f 47/66/49 46/74/58 12/67/51
f 3/69/53 37/221/92 49/70/54
f 84/71/55 85/222/102 81/72/56
f 46/74/58 52/116/80 16/75/17
f 101/76/59 99/223/71 100/77/60
f 35/79/39 1/224/37 21/80/62
f 39/82/64 5/138/89 6/17/16
f 91/84/66 92/225/73 54/85/57
f 97/89/67 93/226/85 91/227/66
f 93/226/85 92/228/73 91/227/66
f 91/227/66 90/87/15 97/89/67
f 68/30/26 67/199/99 28/56/45
f 60/90/63 21/229/62 22/91/68
f 96/93/14 78/230/96 75/94/70
f 81/96/56 54/120/57 99/97/71
f 83/99/9 80/231/77 98/100/72
f 44/46/36 43/232/101 9/102/19
f 92/103/73 93/233/85 76/104/74
f 19/106/75 58/234/98 77/107/76
f 81/108/56 51/235/47 89/109/29
f 83/236/9 73/218/8 38/237/38
f 73/218/8 35/216/39 38/237/38
f 38/237/38 39/238/64 83/236/9
f 39/238/64 40/205/65 78/204/96
f 39/238/64 78/204/96 74/239/13
f 54/112/57 81/200/56 80/113/77
f 80/113/77 83/236/9 74/239/13
f 83/236/9 39/238/64 74/239/13
f 74/239/13 53/111/31 80/113/77
f 9/102/19 43/232/101 42/114/78
f 52/116/80 45/240/100 11/117/35
f 55/118/81 100/241/60 99/119/71
f 18/55/44 57/54/43 79/121/82
f 61/92/69 22/91/68 23/12/12
f 87/123/84 88/242/30 50/124/34
f 97/126/67 75/243/70 76/127/74
f 17/129/86 56/244/97 36/130/87
f 55/132/81 82/245/48 102/133/61
f 80/135/77 81/246/56 94/136/28
f 5/138/89 39/82/64 38/139/38
f 101/141/59 102/247/61 82/142/48
f 81/144/56 85/248/102 86/145/91
f 37/147/92 3/249/53 8/115/79
f 29/250/25 28/251/45 30/149/93
f 28/251/45 27/150/46 30/149/93
f 27/150/46 20/252/94 19/253/75
f 19/253/75 33/254/42 7/148/3
f 33/254/42 18/255/44 7/148/3
f 18/255/44 34/256/83 1/257/37
f 34/256/83 17/258/86 1/257/37
f 17/258/86 2/259/88 26/260/5
f 26/260/5 25/261/33 17/258/86
f 25/261/33 24/262/10 1/257/37
f 24/262/10 23/263/12 22/264/68
f 22/264/68 21/265/62 1/257/37
f 7/148/3 32/266/27 31/267/20
f 22/264/68 1/257/37 24/262/10
f 1/257/37 7/148/3 18/255/44
f 25/261/33 1/257/37 17/258/86
f 27/150/46 19/253/75 7/148/3
f 7/148/3 31/267/20 30/149/93
f 79/121/82 56/244/97 17/129/86
f 35/151/39 47/66/49 13/68/52
f 66/57/24 59/155/95 20/153/94
f 2/154/88 36/268/87 65/6/6
f 59/155/95 58/269/98 19/156/75
